HIERARCHY
ROOT joint_Root
{
	OFFSET 0.0 0.0 0.0
	CHANNELS 6 Xposition Yposition Zposition Zrotation Xrotation Yrotation 
	JOINT Hips
	{
		OFFSET 4.5925 91.4895 -427.239
		CHANNELS 6 Xposition Yposition Zposition Zrotation Xrotation Yrotation 
		JOINT Spine
		{
			OFFSET 15.7357 0.0 0.0
			CHANNELS 6 Xposition Yposition Zposition Zrotation Xrotation Yrotation 
			JOINT Chest
			{
				OFFSET 8.98455 -0.406207 0.0
				CHANNELS 6 Xposition Yposition Zposition Zrotation Xrotation Yrotation 
				JOINT Neck
				{
					OFFSET 16.3773 0.0 0.0
					CHANNELS 6 Xposition Yposition Zposition Zrotation Xrotation Yrotation 
					JOINT Head
					{
						OFFSET 6.45672 0.0 0.0
						CHANNELS 6 Xposition Yposition Zposition Zrotation Xrotation Yrotation 
						End Site
						{
							OFFSET 0.0 0.0 0.0
						}
					}
				}
				JOINT Shoulder_L
				{
					OFFSET 12.9942 -0.242716 4.98039
					CHANNELS 6 Xposition Yposition Zposition Zrotation Xrotation Yrotation 
					JOINT UpperArm_L
					{
						OFFSET 5.34809 0.0 0.0
						CHANNELS 6 Xposition Yposition Zposition Zrotation Xrotation Yrotation 
						JOINT LowerArm_L
						{
							OFFSET 24.3286 1.87007e-05 0.0
							CHANNELS 6 Xposition Yposition Zposition Zrotation Xrotation Yrotation 
							JOINT Hand_L
							{
								OFFSET 22.2916 0.0 0.0
								CHANNELS 6 Xposition Yposition Zposition Zrotation Xrotation Yrotation 
								End Site
								{
									OFFSET 0.0 0.0 0.0
								}
							}
						}
					}
				}
				JOINT Shoulder_R
				{
					OFFSET 12.9945 -0.242716 -4.98039
					CHANNELS 6 Xposition Yposition Zposition Zrotation Xrotation Yrotation 
					JOINT UpperArm_R
					{
						OFFSET -5.34813 0.0 0.0
						CHANNELS 6 Xposition Yposition Zposition Zrotation Xrotation Yrotation 
						JOINT LowerArm_R
						{
							OFFSET -24.3289 0.000322201 0.0
							CHANNELS 6 Xposition Yposition Zposition Zrotation Xrotation Yrotation 
							JOINT Hand_R
							{
								OFFSET -22.2915 -0.000108084 0.0
								CHANNELS 6 Xposition Yposition Zposition Zrotation Xrotation Yrotation 
								End Site
								{
									OFFSET 0.0 0.0 0.0
								}
							}
						}
					}
				}
			}
		}
		JOINT UpperLeg_L
		{
			OFFSET -2.19248 -6.46944 0.0
			CHANNELS 6 Xposition Yposition Zposition Zrotation Xrotation Yrotation 
			JOINT LowerLeg_L
			{
				OFFSET 39.0811 0.0 -1.23785e-05
				CHANNELS 6 Xposition Yposition Zposition Zrotation Xrotation Yrotation 
				JOINT Foot_L
				{
					OFFSET 40.9854 0.0 -1.26872e-05
					CHANNELS 6 Xposition Yposition Zposition Zrotation Xrotation Yrotation 
					JOINT Toes_L
					{
						OFFSET 11.7543 0.0 0.0
						CHANNELS 6 Xposition Yposition Zposition Zrotation Xrotation Yrotation 
						End Site
						{
							OFFSET 0.0 0.0 0.0
						}
					}
				}
			}
		}
		JOINT UpperLeg_R
		{
			OFFSET -2.19251 6.46944 0.0
			CHANNELS 6 Xposition Yposition Zposition Zrotation Xrotation Yrotation 
			JOINT LowerLeg_R
			{
				OFFSET -39.0811 -0.00228153 -0.0401928
				CHANNELS 6 Xposition Yposition Zposition Zrotation Xrotation Yrotation 
				JOINT Foot_R
				{
					OFFSET -40.9854 0.0 0.0
					CHANNELS 6 Xposition Yposition Zposition Zrotation Xrotation Yrotation 
					JOINT Toes_R
					{
						OFFSET -11.7543 0.0 0.0
						CHANNELS 6 Xposition Yposition Zposition Zrotation Xrotation Yrotation 
						End Site
						{
							OFFSET 0.0 0.0 0.0
						}
					}
				}
			}
		}
	}
}
MOTION
Frames:	5
Frame Time:	0.0333333
0.000000 0.000000 0.000000 0.000000 0.000000 -0.000000 -0.787769 92.377600 2.478500 89.088400 -0.099766 0.694380 15.735700 0.000005 -0.000001 85.340200 85.534900 -85.133200 8.984550 -0.406207 -0.000000 1.136170 -0.737148 0.420958 16.377300 -0.000001 -0.000001 -5.070020 -2.950080 1.024440 6.456720 -0.000001 -0.000000 -5.159380 -2.353330 2.371690 12.994200 -0.242716 4.980390 -91.352500 5.402470 -75.922100 5.348090 -0.000007 -0.000001 -70.938300 27.583900 -11.866200 24.328600 0.000019 0.000005 8.748120 21.972600 -22.355000 22.291600 -0.000001 0.000005 5.386560 5.346110 -1.261520 12.994500 -0.242716 -4.980390 88.720900 9.322720 -82.152000 -5.348130 -0.000001 -0.000004 -68.415800 29.866900 -10.968000 -24.328900 0.000322 -0.000009 0.094054 0.369763 -14.420100 -22.291500 -0.000108 -0.000004 10.139400 5.478290 -5.682360 -2.192480 -6.469440 -0.000000 -175.317000 -15.362600 -2.957250 39.081100 -0.000007 -0.000012 -0.101742 0.280548 19.933500 40.985400 -0.000006 -0.000013 0.377583 10.805400 -66.148700 11.754300 -0.000000 0.000003 -0.000416 -0.003415 -16.703300 -2.192510 6.469440 -0.000001 175.905000 29.227800 179.522000 -39.081100 -0.002282 -0.040193 -0.052817 0.172020 18.075200 -40.985400 0.000008 0.000006 4.336230 19.772100 -66.963300 -11.754300 -0.000006 -0.000006 -0.316559 -0.384277 -16.330000
0.000000 0.000000 0.000000 0.000000 0.000000 -0.000000 -0.742418 92.424200 2.301650 89.103500 -0.048249 0.462965 15.735700 0.000005 -0.000001 84.951200 85.662900 -84.765100 8.984550 -0.406207 -0.000000 0.875910 -0.774262 0.377755 16.377300 -0.000001 -0.000001 -4.986950 -2.937550 1.170360 6.456720 -0.000001 -0.000000 -5.141740 -2.264410 2.373860 12.994200 -0.242716 4.980390 -91.147200 4.400320 -75.370500 5.348090 -0.000007 -0.000001 -67.708100 18.318200 -15.204600 24.328600 0.000019 0.000005 8.241990 22.101500 -21.057300 22.291600 -0.000001 0.000005 4.686790 5.342900 -1.166040 12.994500 -0.242716 -4.980390 88.841400 8.015750 -81.746500 -5.348130 -0.000001 -0.000004 -63.645700 23.617400 -14.127300 -24.328900 0.000322 -0.000009 -0.043764 -0.211010 -11.538300 -22.291500 -0.000108 -0.000004 9.820220 5.483420 -5.880700 -2.192480 -6.469440 -0.000000 -175.435000 -15.569900 -3.225110 39.081100 -0.000007 -0.000012 -0.099167 0.276744 19.714400 40.985400 -0.000006 -0.000013 0.436232 11.036200 -65.912400 11.754300 -0.000000 0.000003 -0.000420 -0.003446 -16.704400 -2.192510 6.469440 -0.000001 176.077000 29.347900 179.194000 -39.081100 -0.002282 -0.040193 -0.047379 0.156877 17.911300 -40.985400 0.000008 0.000006 4.485600 19.777000 -66.807700 -11.754300 -0.000006 -0.000006 -0.338043 -0.410885 -16.313300
0.000000 0.000000 0.000000 0.000000 0.000000 -0.000000 -0.704883 92.463800 2.082620 89.094600 0.162106 0.346533 15.735700 0.000005 -0.000001 85.205600 85.782900 -85.057200 8.984550 -0.406207 -0.000000 0.639689 -0.713931 0.300666 16.377300 -0.000001 -0.000001 -4.717320 -2.927110 1.211870 6.456720 -0.000001 -0.000000 -5.087490 -2.327040 2.680350 12.994200 -0.242716 4.980390 -90.707000 2.599610 -74.777800 5.348090 -0.000007 -0.000001 -62.061500 9.482630 -20.947600 24.328600 0.000019 0.000005 9.206920 25.032100 -20.960400 22.291600 -0.000001 0.000005 4.990690 5.352670 -1.457730 12.994500 -0.242716 -4.980390 89.081300 5.865860 -81.080400 -5.348130 -0.000001 -0.000004 -57.224000 15.166600 -17.943700 -24.328900 0.000322 -0.000009 -0.028752 -0.168502 -9.299710 -22.291500 -0.000108 -0.000004 8.854150 5.488830 -6.091690 -2.192480 -6.469440 -0.000000 -175.510000 -15.697200 -3.486890 39.081100 -0.000007 -0.000012 -0.095112 0.266824 19.619200 40.985400 -0.000006 -0.000013 0.529683 11.352800 -65.703700 11.754300 -0.000000 0.000003 -0.000401 -0.003315 -16.699800 -2.192510 6.469440 -0.000001 176.194000 29.695400 178.981000 -39.081100 -0.002282 -0.040193 -0.041488 0.139751 17.779200 -40.985400 0.000008 0.000006 4.566690 19.883600 -66.628700 -11.754300 -0.000006 -0.000006 -0.321249 -0.390079 -16.326200
0.000000 0.000000 0.000000 0.000000 0.000000 -0.000000 -0.668757 92.535900 1.808780 89.113500 0.525927 0.163727 15.735700 0.000005 -0.000001 84.351200 85.928300 -84.247900 8.984550 -0.406207 -0.000000 0.338676 -0.808019 0.208846 16.377300 -0.000001 -0.000001 -4.230420 -2.907750 1.428650 6.456720 -0.000001 -0.000000 -5.011270 -2.047880 2.694700 12.994200 -0.242716 4.980390 -90.228400 0.815600 -74.346100 5.348090 -0.000007 -0.000001 -56.215100 -2.723150 -27.481700 24.328600 0.000019 0.000005 8.570950 23.249300 -20.898000 22.291600 -0.000001 0.000005 6.635000 5.347760 -1.310800 12.994500 -0.242716 -4.980390 89.388700 3.528270 -80.158300 -5.348130 -0.000001 -0.000004 -49.740100 3.633600 -22.695100 -24.328900 0.000322 -0.000009 -0.034854 -0.266480 -7.254920 -22.291500 -0.000108 -0.000004 8.985760 5.488060 -6.061440 -2.192480 -6.469440 -0.000000 -175.644000 -15.646000 -3.765660 39.081100 -0.000007 -0.000012 -0.089908 0.257072 19.276600 40.985400 -0.000006 -0.000013 0.583108 11.647900 -65.310300 11.754300 -0.000000 0.000003 -0.000392 -0.003250 -16.697500 -2.192510 6.469440 -0.000001 176.446000 29.914600 178.700000 -39.081100 -0.002282 -0.040193 -0.025863 0.092381 17.534300 -40.985400 0.000008 0.000006 5.085600 19.617800 -66.528800 -11.754300 -0.000006 -0.000006 -0.313153 -0.380061 -16.332200
0.000000 0.000000 0.000000 0.000000 0.000000 -0.000000 -0.610648 92.588700 1.527180 89.130700 0.792672 -0.171282 15.735700 0.000005 -0.000001 82.420200 86.093600 -82.293800 8.984550 -0.406207 -0.000000 -0.020147 -1.038900 0.252523 16.377300 -0.000001 -0.000001 -3.786270 -2.759160 1.462500 6.456720 -0.000001 -0.000000 -4.691650 -1.658470 2.815460 12.994200 -0.242716 4.980390 -89.732900 -0.935144 -74.064000 5.348090 -0.000007 -0.000001 -51.354500 -16.897000 -34.903000 24.328600 0.000019 0.000005 7.280430 19.994700 -20.486600 22.291600 -0.000001 0.000005 8.482000 5.324140 -0.623412 12.994500 -0.242716 -4.980390 89.709100 1.516190 -79.131300 -5.348130 -0.000001 -0.000004 -42.079900 -10.710000 -28.468100 -24.328900 0.000322 -0.000009 -0.182124 -1.663670 -6.208250 -22.291500 -0.000108 -0.000004 10.256300 5.469710 -5.367570 -2.192480 -6.469440 -0.000000 -175.861000 -15.590900 -4.276260 39.081100 -0.000007 -0.000012 -0.085249 0.246268 19.093900 40.985400 -0.000006 -0.000013 0.658777 11.805600 -65.005200 11.754300 -0.000000 0.000003 -0.000362 -0.003044 -16.690200 -2.192510 6.469440 -0.000001 176.884000 29.700100 178.043000 -39.081100 -0.002282 -0.040193 -0.002643 0.018862 17.560400 -40.985400 0.000008 0.000006 5.936220 18.919700 -66.632700 -11.754300 -0.000006 -0.000006 -0.224467 -0.270982 -16.400200
